<svg version="1.1" id="Layer_1" xmlns="http://www.w3.org/2000/svg" xmlns:xlink="http://www.w3.org/1999/xlink" x="0px" y="0px"
	 width="100%" viewBox="0 0 644 269" enable-background="new 0 0 644 269" xml:space="preserve">
<path fill="#FDFDFD" opacity="1.000000" stroke="none" 
	d="
M489.000000,270.000000 
	C326.044464,270.000000 163.588928,270.000000 1.066701,270.000000 
	C1.066701,180.402374 1.066701,90.804695 1.066701,1.103506 
	C215.666641,1.103506 430.333313,1.103506 644.978516,1.103506 
	C644.978516,90.744415 644.978516,180.372208 644.978516,270.000000 
	C593.138000,270.000000 541.318970,270.000000 489.000000,270.000000 
M239.831055,97.758392 
	C239.831055,97.758392 239.794754,97.682663 240.571350,98.313164 
	C239.799927,104.354553 239.028488,110.395943 238.188721,116.972565 
	C240.539246,116.972565 242.333298,116.972565 244.127335,116.972565 
	C246.067886,116.972565 248.008438,116.972565 250.115311,116.972565 
	C259.352295,75.617973 279.820557,40.355476 304.506561,6.945490 
	C299.488190,9.619553 294.724365,12.523649 290.405975,15.983658 
	C262.272156,38.525208 240.037750,66.202820 220.663162,96.370789 
	C219.662598,97.928780 217.659042,99.737762 216.011368,99.853897 
	C176.471130,102.640877 136.927475,105.410187 97.359215,107.757736 
	C67.931168,109.503670 38.465595,110.612961 9.026068,112.180939 
	C7.513913,112.261482 6.089748,113.994049 4.624614,114.957466 
	C6.066926,115.635452 7.501411,116.881180 8.952797,116.901192 
	C20.112553,117.055038 31.275589,116.963043 42.437607,116.962105 
	C102.579376,116.957062 162.721191,116.927872 222.862793,117.026474 
	C226.373077,117.032227 228.539536,116.361275 230.319260,112.952003 
	C233.069748,107.683136 236.649872,102.847359 239.831055,97.758392 
M358.499573,259.091370 
	C377.151337,250.978821 391.522736,238.419479 401.309723,219.167206 
	C398.276855,218.929443 396.819427,218.715866 395.361908,218.715302 
	C347.079620,218.696457 298.797302,218.683746 250.515106,218.751282 
	C248.677338,218.753845 246.840698,219.560577 245.003525,219.992584 
	C245.641708,221.787857 245.956451,223.793060 246.965485,225.347626 
	C270.600769,261.760834 317.322571,276.063934 358.499573,259.091370 
M456.000763,101.660355 
	C447.527985,101.061729 439.040253,100.609695 430.594574,99.746101 
	C428.813385,99.563972 426.648560,98.270386 425.573730,96.814682 
	C417.171600,85.434692 409.391357,73.576500 400.656860,62.465137 
	C385.066071,42.631672 367.874481,24.314432 346.756226,10.120843 
	C345.238342,9.100684 343.447357,8.486904 341.783325,7.684168 
	C366.928528,40.881687 386.609711,76.190483 395.754486,116.591499 
	C400.063629,116.591499 403.951843,116.591499 408.177307,116.591499 
	C407.474945,110.797150 406.822784,105.417107 406.170624,100.037071 
	C406.687134,99.847038 407.203644,99.657005 407.720154,99.466980 
	C410.542389,104.049232 413.538086,108.536377 416.121552,113.249504 
	C417.663239,116.062134 419.455292,117.072960 422.754913,117.052422 
	C449.242310,116.887535 475.731171,116.956123 502.219604,116.956909 
	C547.199951,116.958237 592.180298,116.983704 637.160400,116.876617 
	C638.753906,116.872826 640.344360,115.566017 641.936218,114.866508 
	C640.448486,114.119354 639.009460,112.865898 637.464111,112.717003 
	C632.165161,112.206459 626.826172,112.129517 621.507385,111.805153 
	C566.648682,108.459595 511.790894,105.097916 456.000763,101.660355 
M513.834717,233.093857 
	C548.218018,230.642960 582.600403,228.178970 616.985413,225.752090 
	C623.959656,225.259857 630.955505,225.032318 637.912598,224.376495 
	C639.165649,224.258377 640.277649,222.643234 641.454773,221.719223 
	C640.259766,220.894730 639.165283,219.737183 637.841980,219.337662 
	C636.467529,218.922714 634.871704,219.238937 633.372681,219.238846 
	C576.407776,219.235199 519.442871,219.230988 462.477936,219.229324 
	C447.653748,219.228882 432.829071,219.184601 418.006012,219.316483 
	C416.425903,219.330521 414.106903,219.927780 413.403656,221.051285 
	C409.388000,227.466721 405.758087,234.123627 401.573273,241.439453 
	C439.264374,238.636108 476.085754,235.897446 513.834717,233.093857 
M180.500076,219.245407 
	C156.841141,219.241791 133.182220,219.236954 109.523285,219.234848 
	C76.034126,219.231873 42.544785,219.191574 9.056364,219.347778 
	C7.416968,219.355423 5.785629,221.090332 4.150543,222.020920 
	C5.725231,222.843933 7.256194,224.283615 8.881064,224.398819 
	C40.615677,226.648987 72.368538,228.642044 104.102707,230.898163 
	C144.308929,233.756546 184.501312,236.809418 224.700897,239.761688 
	C230.718170,240.203598 236.742142,240.554260 243.542892,240.998047 
	C239.639801,234.354904 236.074646,228.577057 232.825577,222.626617 
	C231.346420,219.917633 229.510422,219.122437 226.484695,219.156693 
	C211.491409,219.326385 196.495239,219.240799 180.500076,219.245407 
M427.494446,136.061935 
	C419.042053,136.061935 410.589691,136.061935 401.805725,136.061935 
	C401.464478,138.979889 401.169128,141.505554 400.866791,144.090683 
	C403.697021,144.690048 405.919769,145.160751 408.596130,145.727524 
	C406.663971,160.853897 404.839386,175.678940 402.752228,190.466934 
	C402.582397,191.670029 400.733795,193.356430 399.465881,193.556839 
	C394.565796,194.331436 393.178986,197.090881 393.958282,201.240585 
	C405.795074,201.240585 417.594421,201.674835 429.337799,201.052872 
	C434.999908,200.752991 440.836090,199.127365 446.092499,196.912933 
	C453.140198,193.943863 457.242828,188.024261 457.798950,180.213028 
	C458.302917,173.134857 454.225464,168.997879 447.487640,166.681290 
	C449.227692,165.716110 450.408966,165.110687 451.541290,164.424500 
	C457.654083,160.720047 460.825043,154.620697 459.783600,148.622528 
	C458.717590,142.483017 454.642609,138.473450 446.894165,137.293793 
	C440.837708,136.371735 434.631165,136.435394 427.494446,136.061935 
M335.759918,108.978813 
	C336.177948,114.559578 336.595978,120.140350 337.065094,126.403107 
	C333.012024,126.403107 329.479156,126.403107 325.642975,126.403107 
	C325.812073,128.977158 325.936462,130.870316 326.082153,133.087585 
	C330.083649,133.087585 333.526215,133.087585 336.988831,133.087585 
	C336.988831,139.985352 336.988831,146.505966 336.988831,152.969986 
	C325.950592,153.672638 325.950592,153.672638 326.476440,159.695129 
	C329.803955,159.843460 333.181824,159.994049 336.739594,160.152649 
	C336.223663,166.867050 335.746765,173.073242 335.248627,179.555618 
	C331.672668,179.555618 328.902679,179.555618 325.835815,179.555618 
	C325.668915,181.776657 325.527679,183.656784 325.343109,186.113235 
	C328.833008,186.113235 331.713440,186.113235 334.956940,186.113235 
	C333.893524,194.024063 332.907562,201.358658 331.744232,210.012894 
	C339.900848,203.076477 341.441132,193.988449 345.024353,185.764893 
	C347.745667,185.764893 350.338776,185.764893 353.121185,185.764893 
	C353.426025,183.553268 353.684387,181.678940 353.974152,179.576569 
	C351.149963,179.399857 348.946564,179.261978 346.697266,179.121231 
	C347.987457,172.412201 349.170624,166.259827 350.359863,160.075760 
	C352.742493,159.932938 354.844971,159.806915 357.194550,159.666077 
	C357.459778,157.556854 357.696259,155.675949 357.966339,153.527924 
	C355.428497,153.338730 353.476410,153.193207 351.451477,153.042252 
	C351.451477,146.337036 351.451477,139.775482 351.451477,133.229202 
	C353.735291,133.010361 355.667572,132.825211 357.942047,132.607285 
	C357.826141,130.380310 357.727295,128.480652 357.618927,126.398201 
	C355.209045,126.250237 353.275757,126.131531 351.002686,125.991966 
	C350.329346,118.611763 349.672729,111.414398 348.997162,104.009613 
	C351.260437,103.909988 353.036072,103.831833 355.318756,103.731354 
	C355.146210,101.440796 354.994049,99.420883 354.837769,97.345985 
	C352.192474,97.178093 350.075287,97.043724 347.926422,96.907341 
	C346.471283,89.238716 345.067413,81.840324 343.643433,74.335869 
	C345.969696,74.133980 347.741669,73.980194 349.906403,73.792328 
	C349.704193,71.746811 349.534790,70.032852 349.305237,67.710831 
	C341.868195,70.219162 340.713318,65.393829 338.989868,60.399445 
	C336.827484,54.132988 333.936493,48.108704 331.170105,42.066849 
	C330.529144,40.667011 329.119049,39.619347 328.062866,38.409626 
	C327.766846,38.608707 327.470795,38.807789 327.174774,39.006866 
	C328.439056,48.520489 329.703339,58.034115 331.038635,68.081917 
	C327.597534,68.081917 324.505188,68.081917 321.293640,68.081917 
	C321.293640,70.302483 321.293640,72.017212 321.293640,74.192047 
	C324.864807,74.192047 328.126190,74.192047 331.777374,74.192047 
	C332.708557,81.950310 333.590363,89.296890 334.535339,97.170105 
	C330.673706,97.170105 327.411926,97.170105 323.726318,97.170105 
	C323.888458,99.565865 324.017517,101.472900 324.178436,103.851151 
	C326.854065,103.851151 329.173065,104.088051 331.423553,103.796288 
	C334.901337,103.345406 335.869324,105.032265 335.759918,108.978813 
M208.499329,136.069138 
	C194.876984,136.069138 181.254654,136.069138 167.280014,136.069138 
	C166.964905,138.904526 166.696533,141.319336 166.402039,143.969162 
	C169.047150,144.587387 171.413696,145.140518 174.132980,145.776077 
	C172.288437,160.806213 170.546631,175.659241 168.508804,190.471558 
	C168.326935,191.793518 166.370499,193.628723 164.985748,193.890640 
	C160.169601,194.801575 159.536530,197.690445 160.170074,201.833130 
	C180.212067,201.833130 199.989105,201.833130 220.063858,201.833130 
	C220.769516,196.140564 221.456100,190.601669 222.143982,185.052490 
	C216.956833,184.095184 212.713959,183.677200 210.240097,189.383743 
	C209.503448,191.083023 206.580460,192.648651 204.540955,192.813629 
	C198.827515,193.275818 193.052307,192.974640 186.946701,192.974640 
	C187.751556,186.493896 188.519730,180.308487 189.341354,173.692810 
	C196.374176,173.692810 202.961945,173.692810 209.642487,173.692810 
	C210.041229,170.304047 210.383591,167.394379 210.792923,163.915695 
	C203.925522,163.915695 197.516724,163.915695 190.712616,163.915695 
	C191.519531,157.630173 192.252548,151.920181 193.105698,145.274551 
	C200.752548,148.602814 211.262497,140.139786 215.482147,152.798691 
	C218.903107,152.798691 222.309692,152.798691 225.776566,152.798691 
	C226.433075,147.184921 227.046555,141.939163 227.733047,136.069138 
	C221.391113,136.069138 215.444977,136.069138 208.499329,136.069138 
M73.985222,189.319656 
	C70.236877,171.638992 66.488533,153.958313 62.710518,136.137711 
	C57.740002,136.137711 53.222118,136.483643 48.784512,136.035187 
	C44.775978,135.630096 42.836067,137.278549 41.154030,140.640564 
	C33.114758,156.709259 24.983082,172.734421 16.610142,188.630661 
	C15.328218,191.064423 12.936822,193.781097 10.491069,194.541382 
	C6.299312,195.844452 5.444460,198.042496 6.111680,201.743057 
	C15.500506,201.743057 24.745728,201.743057 34.255558,201.743057 
	C34.582287,199.745682 34.867859,197.999893 35.170414,196.150269 
	C32.474129,195.289459 30.149801,194.547409 26.335165,193.329575 
	C29.113482,190.135239 31.003523,185.888611 33.501667,185.494278 
	C39.966022,184.473862 46.698513,185.152100 53.428200,185.152100 
	C53.980053,187.135544 54.396820,188.724838 54.865852,190.298538 
	C55.632984,192.872406 54.921810,194.777969 52.093098,194.914062 
	C47.479809,195.136017 46.764992,197.871094 47.188728,201.776581 
	C58.465443,201.776581 69.700905,201.776581 81.262520,201.776581 
	C81.541954,199.504730 81.794128,197.454498 82.046303,195.404266 
	C81.533226,195.707092 81.020149,196.009918 80.507072,196.312744 
	C78.381882,194.249115 76.256699,192.185486 73.985222,189.319656 
M478.336914,185.249786 
	C485.112213,185.249786 491.887512,185.249786 498.622711,185.249786 
	C499.212830,187.546417 500.099548,189.347565 499.983673,191.081711 
	C499.894989,192.409592 498.655823,194.657074 497.728210,194.764297 
	C493.088440,195.300690 492.667206,198.067642 493.108276,201.734497 
	C504.081451,201.734497 514.848145,201.734497 525.817749,201.734497 
	C526.029175,199.505524 526.214661,197.549683 526.434814,195.228149 
	C520.920898,195.105118 519.831848,191.402466 518.915710,187.012650 
	C516.705383,176.421951 514.114441,165.910095 511.631836,155.377060 
	C510.120056,148.963089 508.524475,142.568878 506.957489,136.128586 
	C502.241089,136.128586 498.060425,136.379364 493.925110,136.053925 
	C490.221588,135.762466 488.356415,137.074356 486.798126,140.506653 
	C479.435608,156.723419 471.844940,172.839279 464.084869,188.869736 
	C463.034729,191.039032 460.818268,193.615692 458.705017,194.100830 
	C453.964172,195.189163 453.882568,198.101776 453.965210,201.765808 
	C463.015381,201.765808 471.790436,201.765808 480.759888,201.765808 
	C480.999207,199.743942 481.210693,197.957550 481.439850,196.021667 
	C478.983307,195.148376 476.728271,194.346725 474.075500,193.403671 
	C475.418213,190.506424 476.524170,188.120087 478.336914,185.249786 
M139.315460,201.865326 
	C151.557343,198.389740 150.111710,200.372208 150.452606,189.940262 
	C143.632797,191.524765 136.786530,193.644135 129.780930,194.621857 
	C118.658813,196.174088 110.858421,190.313721 109.503044,179.626617 
	C108.223076,169.534088 110.522469,159.978958 116.234962,151.573486 
	C120.936066,144.656204 127.974487,142.705475 136.041107,144.093109 
	C142.910568,145.274811 143.394135,150.874435 144.186081,156.290619 
	C147.935379,156.290619 151.517532,156.290619 155.507126,156.290619 
	C156.337936,149.709518 157.139526,143.359924 157.972717,136.760010 
	C144.666885,134.308762 131.842178,132.962036 118.995171,136.629562 
	C107.011948,140.050522 97.533455,146.841644 92.607269,158.493927 
	C81.446686,184.892944 95.389618,203.140945 120.653587,203.739380 
	C126.580177,203.879761 132.540390,202.601151 139.315460,201.865326 
M616.116699,159.749893 
	C616.615417,155.957199 616.955261,152.132614 617.706360,148.390579 
	C617.942383,147.214966 619.265686,145.364548 620.121460,145.347656 
	C626.993103,145.211975 625.616211,140.515579 625.779968,136.268631 
	C614.448730,136.268631 603.519470,136.268631 592.224976,136.268631 
	C591.900330,138.864197 591.598938,141.274155 591.262634,143.962830 
	C593.968445,144.567276 596.337769,145.096542 599.156372,145.726181 
	C597.239502,160.878830 595.397583,175.867355 593.341858,190.826492 
	C593.187439,191.950424 591.611877,193.593796 590.518127,193.750916 
	C585.631775,194.452835 585.093750,197.695541 585.278442,201.758072 
	C602.878235,201.758072 620.452271,201.758072 638.317261,201.758072 
	C639.146790,195.509064 639.948120,189.472534 640.990784,181.617798 
	C637.071106,182.973343 632.968018,183.103745 631.472961,185.144623 
	C626.460388,191.986923 621.151062,194.438019 612.032654,192.296570 
	C613.366577,181.760117 614.703186,171.202271 616.116699,159.749893 
M530.596497,195.083038 
	C529.793396,197.209442 528.990295,199.335861 528.084839,201.733215 
	C546.479980,201.733215 563.877197,201.733215 581.640930,201.733215 
	C582.461060,195.360291 583.250061,189.229416 584.250366,181.456451 
	C580.113892,182.872543 576.105774,182.986542 574.627380,184.978271 
	C569.449707,191.953583 565.197876,194.073105 555.465576,192.353943 
	C557.285950,177.533035 559.072205,162.685257 561.015259,147.858032 
	C561.143982,146.876038 562.446350,145.291946 563.236511,145.271164 
	C570.059692,145.091782 568.800537,140.469528 568.854431,136.312042 
	C557.533752,136.312042 546.641907,136.312042 535.492249,136.312042 
	C535.219055,139.047348 534.977295,141.468262 534.713074,144.113724 
	C537.302979,144.646011 539.540771,145.105911 542.302124,145.673416 
	C542.139038,147.891968 542.075745,150.003021 541.815491,152.089493 
	C540.332703,163.974594 538.592590,175.832840 537.402893,187.746445 
	C536.983948,191.940948 535.304749,194.138153 530.596497,195.083038 
z"/>
<path fill="#040405" opacity="1.000000" stroke="none" 
	d="
M358.137939,259.219238 
	C317.322571,276.063934 270.600769,261.760834 246.965485,225.347626 
	C245.956451,223.793060 245.641708,221.787857 245.003525,219.992584 
	C246.840698,219.560577 248.677338,218.753845 250.515106,218.751282 
	C298.797302,218.683746 347.079620,218.696457 395.361908,218.715302 
	C396.819427,218.715866 398.276855,218.929443 401.309723,219.167206 
	C391.522736,238.419479 377.151337,250.978821 358.137939,259.219238 
z"/>
<path fill="#09090A" opacity="1.000000" stroke="none" 
	d="
M239.878159,97.827919 
	C236.649872,102.847359 233.069748,107.683136 230.319260,112.952003 
	C228.539536,116.361275 226.373077,117.032227 222.862793,117.026474 
	C162.721191,116.927872 102.579376,116.957062 42.437607,116.962105 
	C31.275589,116.963043 20.112553,117.055038 8.952797,116.901192 
	C7.501411,116.881180 6.066926,115.635452 4.624615,114.957458 
	C6.089748,113.994049 7.513913,112.261482 9.026068,112.180939 
	C38.465595,110.612961 67.931168,109.503670 97.359215,107.757736 
	C136.927475,105.410187 176.471130,102.640877 216.011368,99.853897 
	C217.659042,99.737762 219.662598,97.928780 220.663162,96.370789 
	C240.037750,66.202820 262.272156,38.525208 290.405975,15.983658 
	C294.724365,12.523649 299.488190,9.619553 304.506561,6.945490 
	C279.820557,40.355476 259.352295,75.617973 250.115311,116.972565 
	C248.008438,116.972565 246.067886,116.972565 244.127335,116.972565 
	C242.333298,116.972565 240.539246,116.972565 238.188721,116.972565 
	C239.028488,110.395943 239.799927,104.354553 240.371429,98.239517 
	C240.282318,97.891380 240.393143,97.616875 240.503967,97.342369 
	C240.295364,97.504219 240.086761,97.666069 239.878159,97.827919 
z"/>
<path fill="#09090A" opacity="1.000000" stroke="none" 
	d="
M456.466797,101.700546 
	C511.790894,105.097916 566.648682,108.459595 621.507385,111.805153 
	C626.826172,112.129517 632.165161,112.206459 637.464111,112.717003 
	C639.009460,112.865898 640.448486,114.119354 641.936218,114.866508 
	C640.344360,115.566017 638.753906,116.872826 637.160400,116.876617 
	C592.180298,116.983704 547.199951,116.958237 502.219604,116.956909 
	C475.731171,116.956123 449.242310,116.887535 422.754913,117.052422 
	C419.455292,117.072960 417.663239,116.062134 416.121552,113.249504 
	C413.538086,108.536377 410.542389,104.049232 407.720154,99.466980 
	C407.203644,99.657005 406.687134,99.847038 406.170624,100.037071 
	C406.822784,105.417107 407.474945,110.797150 408.177307,116.591499 
	C403.951843,116.591499 400.063629,116.591499 395.754486,116.591499 
	C386.609711,76.190483 366.928528,40.881687 341.783325,7.684168 
	C343.447357,8.486904 345.238342,9.100684 346.756226,10.120843 
	C367.874481,24.314432 385.066071,42.631672 400.656860,62.465137 
	C409.391357,73.576500 417.171600,85.434692 425.573730,96.814682 
	C426.648560,98.270386 428.813385,99.563972 430.594574,99.746101 
	C439.040253,100.609695 447.527985,101.061729 456.466797,101.700546 
z"/>
<path fill="#0D0D0D" opacity="1.000000" stroke="none" 
	d="
M513.370972,233.126312 
	C476.085754,235.897446 439.264374,238.636108 401.573273,241.439453 
	C405.758087,234.123627 409.388000,227.466721 413.403656,221.051285 
	C414.106903,219.927780 416.425903,219.330521 418.006012,219.316483 
	C432.829071,219.184601 447.653748,219.228882 462.477936,219.229324 
	C519.442871,219.230988 576.407776,219.235199 633.372681,219.238846 
	C634.871704,219.238937 636.467529,218.922714 637.841980,219.337662 
	C639.165283,219.737183 640.259766,220.894730 641.454773,221.719238 
	C640.277649,222.643234 639.165649,224.258377 637.912598,224.376495 
	C630.955505,225.032318 623.959656,225.259857 616.985413,225.752090 
	C582.600403,228.178970 548.218018,230.642960 513.370972,233.126312 
z"/>
<path fill="#0D0D0D" opacity="1.000000" stroke="none" 
	d="
M181.000076,219.245300 
	C196.495239,219.240799 211.491409,219.326385 226.484695,219.156693 
	C229.510422,219.122437 231.346420,219.917633 232.825577,222.626617 
	C236.074646,228.577057 239.639801,234.354904 243.542892,240.998047 
	C236.742142,240.554260 230.718170,240.203598 224.700897,239.761688 
	C184.501312,236.809418 144.308929,233.756546 104.102707,230.898163 
	C72.368538,228.642044 40.615677,226.648987 8.881064,224.398819 
	C7.256194,224.283615 5.725231,222.843933 4.150540,222.020935 
	C5.785629,221.090332 7.416968,219.355423 9.056364,219.347778 
	C42.544785,219.191574 76.034126,219.231873 109.523285,219.234848 
	C133.182220,219.236954 156.841141,219.241791 181.000076,219.245300 
z"/>
<path fill="#080808" opacity="1.000000" stroke="none" 
	d="
M427.992889,136.061493 
	C434.631165,136.435394 440.837708,136.371735 446.894165,137.293793 
	C454.642609,138.473450 458.717590,142.483017 459.783600,148.622528 
	C460.825043,154.620697 457.654083,160.720047 451.541290,164.424500 
	C450.408966,165.110687 449.227692,165.716110 447.487640,166.681290 
	C454.225464,168.997879 458.302917,173.134857 457.798950,180.213028 
	C457.242828,188.024261 453.140198,193.943863 446.092499,196.912933 
	C440.836090,199.127365 434.999908,200.752991 429.337799,201.052872 
	C417.594421,201.674835 405.795074,201.240585 393.958282,201.240585 
	C393.178986,197.090881 394.565796,194.331436 399.465881,193.556839 
	C400.733795,193.356430 402.582397,191.670029 402.752228,190.466934 
	C404.839386,175.678940 406.663971,160.853897 408.596130,145.727524 
	C405.919769,145.160751 403.697021,144.690048 400.866791,144.090683 
	C401.169128,141.505554 401.464478,138.979889 401.805725,136.061935 
	C410.589691,136.061935 419.042053,136.061935 427.992889,136.061493 
M426.489563,173.690796 
	C425.269897,174.342514 423.133240,174.827042 422.979004,175.673019 
	C421.956787,181.279709 421.359711,186.963928 420.534821,193.311340 
	C423.967590,192.886368 426.613373,192.861740 429.084412,192.192276 
	C434.917084,190.612106 438.868683,185.173325 438.146576,180.187103 
	C437.537903,175.984482 434.545349,174.169876 426.489563,173.690796 
M439.858795,151.164581 
	C436.465057,145.619431 431.159943,147.151398 426.098846,146.937469 
	C425.390625,152.370346 424.739288,157.289337 424.124573,162.212891 
	C424.068665,162.660889 424.247498,163.138214 424.312347,163.569061 
	C434.374237,165.146072 440.408142,160.662506 439.858795,151.164581 
z"/>
<path fill="#0D0D0D" opacity="1.000000" stroke="none" 
	d="
M335.726959,108.515747 
	C335.869324,105.032265 334.901337,103.345406 331.423553,103.796288 
	C329.173065,104.088051 326.854065,103.851151 324.178436,103.851151 
	C324.017517,101.472900 323.888458,99.565865 323.726318,97.170105 
	C327.411926,97.170105 330.673706,97.170105 334.535339,97.170105 
	C333.590363,89.296890 332.708557,81.950310 331.777374,74.192047 
	C328.126190,74.192047 324.864807,74.192047 321.293640,74.192047 
	C321.293640,72.017212 321.293640,70.302483 321.293640,68.081917 
	C324.505188,68.081917 327.597534,68.081917 331.038635,68.081917 
	C329.703339,58.034115 328.439056,48.520489 327.174774,39.006866 
	C327.470795,38.807789 327.766846,38.608707 328.062866,38.409626 
	C329.119049,39.619347 330.529144,40.667011 331.170105,42.066849 
	C333.936493,48.108704 336.827484,54.132988 338.989868,60.399445 
	C340.713318,65.393829 341.868195,70.219162 349.305237,67.710831 
	C349.534790,70.032852 349.704193,71.746811 349.906403,73.792328 
	C347.741669,73.980194 345.969696,74.133980 343.643433,74.335869 
	C345.067413,81.840324 346.471283,89.238716 347.926422,96.907341 
	C350.075287,97.043724 352.192474,97.178093 354.837769,97.345985 
	C354.994049,99.420883 355.146210,101.440796 355.318756,103.731354 
	C353.036072,103.831833 351.260437,103.909988 348.997162,104.009613 
	C349.672729,111.414398 350.329346,118.611763 351.002686,125.991966 
	C353.275757,126.131531 355.209045,126.250237 357.618927,126.398201 
	C357.727295,128.480652 357.826141,130.380310 357.942047,132.607285 
	C355.667572,132.825211 353.735291,133.010361 351.451477,133.229202 
	C351.451477,139.775482 351.451477,146.337036 351.451477,153.042252 
	C353.476410,153.193207 355.428497,153.338730 357.966339,153.527924 
	C357.696259,155.675949 357.459778,157.556854 357.194550,159.666077 
	C354.844971,159.806915 352.742493,159.932938 350.359863,160.075760 
	C349.170624,166.259827 347.987457,172.412201 346.697266,179.121231 
	C348.946564,179.261978 351.149963,179.399857 353.974152,179.576569 
	C353.684387,181.678940 353.426025,183.553268 353.121185,185.764893 
	C350.338776,185.764893 347.745667,185.764893 345.024353,185.764893 
	C341.441132,193.988449 339.900848,203.076477 331.744232,210.012894 
	C332.907562,201.358658 333.893524,194.024063 334.956940,186.113235 
	C331.713440,186.113235 328.833008,186.113235 325.343109,186.113235 
	C325.527679,183.656784 325.668915,181.776657 325.835815,179.555618 
	C328.902679,179.555618 331.672668,179.555618 335.248627,179.555618 
	C335.746765,173.073242 336.223663,166.867050 336.739594,160.152649 
	C333.181824,159.994049 329.803955,159.843460 326.476440,159.695129 
	C325.950592,153.672638 325.950592,153.672638 336.988831,152.969986 
	C336.988831,146.505966 336.988831,139.985352 336.988831,133.087585 
	C333.526215,133.087585 330.083649,133.087585 326.082153,133.087585 
	C325.936462,130.870316 325.812073,128.977158 325.642975,126.403107 
	C329.479156,126.403107 333.012024,126.403107 337.065094,126.403107 
	C336.595978,120.140350 336.177948,114.559578 335.726959,108.515747 
z"/>
<path fill="#0A0A0A" opacity="1.000000" stroke="none" 
	d="
M208.999084,136.069138 
	C215.444977,136.069138 221.391113,136.069138 227.733047,136.069138 
	C227.046555,141.939163 226.433075,147.184921 225.776566,152.798691 
	C222.309692,152.798691 218.903107,152.798691 215.482147,152.798691 
	C211.262497,140.139786 200.752548,148.602814 193.105698,145.274551 
	C192.252548,151.920181 191.519531,157.630173 190.712616,163.915695 
	C197.516724,163.915695 203.925522,163.915695 210.792923,163.915695 
	C210.383591,167.394379 210.041229,170.304047 209.642487,173.692810 
	C202.961945,173.692810 196.374176,173.692810 189.341354,173.692810 
	C188.519730,180.308487 187.751556,186.493896 186.946701,192.974640 
	C193.052307,192.974640 198.827515,193.275818 204.540955,192.813629 
	C206.580460,192.648651 209.503448,191.083023 210.240097,189.383743 
	C212.713959,183.677200 216.956833,184.095184 222.143982,185.052490 
	C221.456100,190.601669 220.769516,196.140564 220.063858,201.833130 
	C199.989105,201.833130 180.212067,201.833130 160.170074,201.833130 
	C159.536530,197.690445 160.169601,194.801575 164.985748,193.890640 
	C166.370499,193.628723 168.326935,191.793518 168.508804,190.471558 
	C170.546631,175.659241 172.288437,160.806213 174.132980,145.776077 
	C171.413696,145.140518 169.047150,144.587387 166.402039,143.969162 
	C166.696533,141.319336 166.964905,138.904526 167.280014,136.069138 
	C181.254654,136.069138 194.876984,136.069138 208.999084,136.069138 
z"/>
<path fill="#090909" opacity="1.000000" stroke="none" 
	d="
M74.058365,189.720749 
	C76.256699,192.185486 78.381882,194.249115 80.507072,196.312744 
	C81.020149,196.009918 81.533226,195.707092 82.046303,195.404266 
	C81.794128,197.454498 81.541954,199.504730 81.262520,201.776581 
	C69.700905,201.776581 58.465443,201.776581 47.188728,201.776581 
	C46.764992,197.871094 47.479809,195.136017 52.093098,194.914062 
	C54.921810,194.777969 55.632984,192.872406 54.865852,190.298538 
	C54.396820,188.724838 53.980053,187.135544 53.428200,185.152100 
	C46.698513,185.152100 39.966022,184.473862 33.501667,185.494278 
	C31.003523,185.888611 29.113482,190.135239 26.335165,193.329575 
	C30.149801,194.547409 32.474129,195.289459 35.170414,196.150269 
	C34.867859,197.999893 34.582287,199.745682 34.255558,201.743057 
	C24.745728,201.743057 15.500506,201.743057 6.111680,201.743057 
	C5.444460,198.042496 6.299312,195.844452 10.491069,194.541382 
	C12.936822,193.781097 15.328218,191.064423 16.610142,188.630661 
	C24.983082,172.734421 33.114758,156.709259 41.154030,140.640564 
	C42.836067,137.278549 44.775978,135.630096 48.784512,136.035187 
	C53.222118,136.483643 57.740002,136.137711 62.710518,136.137711 
	C66.488533,153.958313 70.236877,171.638992 74.058365,189.720749 
M36.941818,172.318985 
	C36.437729,173.645325 35.933636,174.971680 35.380505,176.427063 
	C41.078671,176.427063 46.267056,176.427063 51.775440,176.427063 
	C49.952953,168.489243 48.230782,160.988342 46.194183,152.117966 
	C42.829128,159.435623 40.025848,165.531631 36.941818,172.318985 
z"/>
<path fill="#090909" opacity="1.000000" stroke="none" 
	d="
M477.983521,185.491776 
	C476.524170,188.120087 475.418213,190.506424 474.075500,193.403671 
	C476.728271,194.346725 478.983307,195.148376 481.439850,196.021667 
	C481.210693,197.957550 480.999207,199.743942 480.759888,201.765808 
	C471.790436,201.765808 463.015381,201.765808 453.965210,201.765808 
	C453.882568,198.101776 453.964172,195.189163 458.705017,194.100830 
	C460.818268,193.615692 463.034729,191.039032 464.084869,188.869736 
	C471.844940,172.839279 479.435608,156.723419 486.798126,140.506653 
	C488.356415,137.074356 490.221588,135.762466 493.925110,136.053925 
	C498.060425,136.379364 502.241089,136.128586 506.957489,136.128586 
	C508.524475,142.568878 510.120056,148.963089 511.631836,155.377060 
	C514.114441,165.910095 516.705383,176.421951 518.915710,187.012650 
	C519.831848,191.402466 520.920898,195.105118 526.434814,195.228149 
	C526.214661,197.549683 526.029175,199.505524 525.817749,201.734497 
	C514.848145,201.734497 504.081451,201.734497 493.108276,201.734497 
	C492.667206,198.067642 493.088440,195.300690 497.728210,194.764297 
	C498.655823,194.657074 499.894989,192.409592 499.983673,191.081711 
	C500.099548,189.347565 499.212830,187.546417 498.622711,185.249786 
	C491.887512,185.249786 485.112213,185.249786 477.983521,185.491776 
M496.778961,175.601807 
	C495.168091,168.642380 493.557220,161.682953 491.615997,153.296249 
	C487.781647,161.919998 484.590332,169.097534 481.340973,176.405563 
	C486.933411,176.405563 491.718719,176.405563 496.778961,175.601807 
z"/>
<path fill="#0A0A0B" opacity="1.000000" stroke="none" 
	d="
M138.900299,201.920349 
	C132.540390,202.601151 126.580177,203.879761 120.653587,203.739380 
	C95.389618,203.140945 81.446686,184.892944 92.607269,158.493927 
	C97.533455,146.841644 107.011948,140.050522 118.995171,136.629562 
	C131.842178,132.962036 144.666885,134.308762 157.972717,136.760010 
	C157.139526,143.359924 156.337936,149.709518 155.507126,156.290619 
	C151.517532,156.290619 147.935379,156.290619 144.186081,156.290619 
	C143.394135,150.874435 142.910568,145.274811 136.041107,144.093109 
	C127.974487,142.705475 120.936066,144.656204 116.234962,151.573486 
	C110.522469,159.978958 108.223076,169.534088 109.503044,179.626617 
	C110.858421,190.313721 118.658813,196.174088 129.780930,194.621857 
	C136.786530,193.644135 143.632797,191.524765 150.452606,189.940262 
	C150.111710,200.372208 151.557343,198.389740 138.900299,201.920349 
z"/>
<path fill="#090909" opacity="1.000000" stroke="none" 
	d="
M616.078247,160.197159 
	C614.703186,171.202271 613.366577,181.760117 612.032654,192.296570 
	C621.151062,194.438019 626.460388,191.986923 631.472961,185.144623 
	C632.968018,183.103745 637.071106,182.973343 640.990784,181.617798 
	C639.948120,189.472534 639.146790,195.509064 638.317261,201.758072 
	C620.452271,201.758072 602.878235,201.758072 585.278442,201.758072 
	C585.093750,197.695541 585.631775,194.452835 590.518127,193.750916 
	C591.611877,193.593796 593.187439,191.950424 593.341858,190.826492 
	C595.397583,175.867355 597.239502,160.878830 599.156372,145.726181 
	C596.337769,145.096542 593.968445,144.567276 591.262634,143.962830 
	C591.598938,141.274155 591.900330,138.864197 592.224976,136.268631 
	C603.519470,136.268631 614.448730,136.268631 625.779968,136.268631 
	C625.616211,140.515579 626.993103,145.211975 620.121460,145.347656 
	C619.265686,145.364548 617.942383,147.214966 617.706360,148.390579 
	C616.955261,152.132614 616.615417,155.957199 616.078247,160.197159 
z"/>
<path fill="#080809" opacity="1.000000" stroke="none" 
	d="
M530.978027,194.988342 
	C535.304749,194.138153 536.983948,191.940948 537.402893,187.746445 
	C538.592590,175.832840 540.332703,163.974594 541.815491,152.089493 
	C542.075745,150.003021 542.139038,147.891968 542.302124,145.673416 
	C539.540771,145.105911 537.302979,144.646011 534.713074,144.113724 
	C534.977295,141.468262 535.219055,139.047348 535.492249,136.312042 
	C546.641907,136.312042 557.533752,136.312042 568.854431,136.312042 
	C568.800537,140.469528 570.059692,145.091782 563.236511,145.271164 
	C562.446350,145.291946 561.143982,146.876038 561.015259,147.858032 
	C559.072205,162.685257 557.285950,177.533035 555.465576,192.353943 
	C565.197876,194.073105 569.449707,191.953583 574.627380,184.978271 
	C576.105774,182.986542 580.113892,182.872543 584.250366,181.456451 
	C583.250061,189.229416 582.461060,195.360291 581.640930,201.733215 
	C563.877197,201.733215 546.479980,201.733215 528.084839,201.733215 
	C528.990295,199.335861 529.793396,197.209442 530.978027,194.988342 
z"/>
<path fill="#FDFDFD" opacity="1.000000" stroke="none" 
	d="
M239.854614,97.793152 
	C240.086761,97.666069 240.295364,97.504219 240.503967,97.342369 
	C240.393143,97.616875 240.282318,97.891380 239.983124,97.924271 
	C239.794754,97.682663 239.831055,97.758392 239.854614,97.793152 
z"/>
<path fill="#F5F5F5" opacity="1.000000" stroke="none" 
	d="
M426.942932,173.679611 
	C434.545349,174.169876 437.537903,175.984482 438.146576,180.187103 
	C438.868683,185.173325 434.917084,190.612106 429.084412,192.192276 
	C426.613373,192.861740 423.967590,192.886368 420.534821,193.311340 
	C421.359711,186.963928 421.956787,181.279709 422.979004,175.673019 
	C423.133240,174.827042 425.269897,174.342514 426.942932,173.679611 
z"/>
<path fill="#F3F3F3" opacity="1.000000" stroke="none" 
	d="
M439.959778,151.565491 
	C440.408142,160.662506 434.374237,165.146072 424.312347,163.569061 
	C424.247498,163.138214 424.068665,162.660889 424.124573,162.212891 
	C424.739288,157.289337 425.390625,152.370346 426.098846,146.937469 
	C431.159943,147.151398 436.465057,145.619431 439.959778,151.565491 
z"/>
<path fill="#EBEBEB" opacity="1.000000" stroke="none" 
	d="
M37.082191,171.973328 
	C40.025848,165.531631 42.829128,159.435623 46.194183,152.117966 
	C48.230782,160.988342 49.952953,168.489243 51.775440,176.427063 
	C46.267056,176.427063 41.078671,176.427063 35.380505,176.427063 
	C35.933636,174.971680 36.437729,173.645325 37.082191,171.973328 
z"/>
<path fill="#ECECEC" opacity="1.000000" stroke="none" 
	d="
M496.641510,176.003693 
	C491.718719,176.405563 486.933411,176.405563 481.340973,176.405563 
	C484.590332,169.097534 487.781647,161.919998 491.615997,153.296249 
	C493.557220,161.682953 495.168091,168.642380 496.641510,176.003693 
z"/>
</svg>